<svg width="60" height="60" viewBox="0 0 60 60" fill="none" xmlns="http://www.w3.org/2000/svg">
<path d="M1.875 12.6562V47.3438H18.6328C20.1855 47.3438 30.8789 47.0288 30.8789 37.2656C30.8789 31.1646 26.6821 29.0918 24.5508 28.4766C26.1182 27.7368 29.2383 25.979 29.2383 21.2695C29.2383 18.6475 28.8647 12.6562 18.1641 12.6562H1.875ZM40.0781 15.8789V19.043H53.0273V15.8789H40.0781ZM9.49219 18.5742H16.6406C17.3145 18.5742 21.8555 18.2153 21.8555 22.5586C21.8555 26.272 18.5742 26.6602 17.2266 26.6602H9.49219V18.5742ZM46.875 21.9141C37.0825 21.9141 35.0391 30.4175 35.0391 34.1016C35.0391 45.0366 44.0039 46.2891 46.875 46.2891C54.6167 46.2891 56.814 41.2793 57.7148 38.4961H52.0898C51.8701 39.2139 50.2295 41.543 47.1094 41.543C41.8799 41.543 41.4258 37.4561 41.4258 35.625H58.0664C58.4033 29.2969 55.6348 21.9141 46.875 21.9141ZM46.6992 26.6602C48.2593 26.6602 49.519 27.1143 50.2734 27.9492C51.0278 28.7915 51.5845 30.022 51.7383 31.6406H41.4258C41.4551 31.1938 41.5576 30.6812 41.7188 30.1172C41.8799 29.5386 42.1289 28.9893 42.5391 28.4766C42.9492 27.9712 43.5205 27.5317 44.1797 27.1875C44.8535 26.8359 45.6885 26.6602 46.6992 26.6602ZM9.49219 31.875H17.7539C19.3945 31.875 23.2617 32.1313 23.2617 36.8555C23.2617 41.4331 18.3911 41.4258 17.6367 41.4258H9.49219V31.875Z" fill="#121212"/>
</svg>
