<svg width="60" height="60" viewBox="0 0 60 60" fill="none" xmlns="http://www.w3.org/2000/svg">
<path d="M10.8 4.80005C7.48799 4.80005 4.79999 7.48805 4.79999 10.8V49.2001C4.79999 52.5121 7.48799 55.2001 10.8 55.2001H49.2C52.512 55.2001 55.2 52.5121 55.2 49.2001V10.8C55.2 7.48805 52.512 4.80005 49.2 4.80005H10.8ZM31.4039 13.2C33.7679 13.2 36 15.324 36 25.8C36 29.544 35.363 34.9811 33.143 39.4571C34.103 40.7051 35.064 41.1 35.7 40.8C37.5 39.9361 38.6512 36.9003 39.7312 33.5883C40.0312 32.6883 41.0291 32.1967 41.9531 32.4727C42.8891 32.7607 43.4156 33.7199 43.1156 34.6079C42.2036 37.4159 39.6484 44.3766 35.7844 44.3766C34.5604 44.3766 32.915 44.3282 31.343 42.7922C29.579 45.1922 27.3845 46.8 24.7805 46.8C19.2725 46.8 16.8 42.613 16.8 38.461C16.8 34.057 19.057 28.861 24.157 28.861C25.021 28.861 25.8121 29.0171 26.4961 29.2571C26.4001 28.0571 26.4 27.0971 26.4 25.6571C26.4 25.5251 26.4479 13.2 31.4039 13.2ZM31.5469 16.861C30.8149 18.109 29.9531 21.755 29.9531 25.643C29.9531 29.867 30.4443 33.1079 31.1883 35.5079C32.3043 32.4239 32.4469 28.836 32.4469 25.8C32.4469 20.088 32.1109 17.653 31.5469 16.861ZM24.143 32.4C20.327 32.4 20.4 38.315 20.4 38.543C20.4 40.031 20.747 43.2001 24.743 43.2001C26.279 43.2001 27.8409 41.9757 29.1609 39.8157C28.3569 38.3157 27.6001 35.9641 27.0961 33.6C27.0001 33.528 26.9035 33.4567 26.8195 33.3727C26.8195 33.3727 25.655 32.4 24.143 32.4Z" fill="#121212"/>
</svg>
