<svg width="60" height="60" viewBox="0 0 60 60" fill="none" xmlns="http://www.w3.org/2000/svg">
<path d="M20.625 6.25C12.6988 6.25 6.25 12.6988 6.25 20.625V39.375C6.25 47.3013 12.6988 53.75 20.625 53.75H39.375C47.3013 53.75 53.75 47.3013 53.75 39.375V20.625C53.75 12.6988 47.3013 6.25 39.375 6.25H20.625ZM42.5 15C43.8812 15 45 16.1187 45 17.5C45 18.88 43.8812 20 42.5 20C41.1188 20 40 18.88 40 17.5C40 16.1187 41.1188 15 42.5 15ZM30 17.5C36.8925 17.5 42.5 23.1075 42.5 30C42.5 36.8925 36.8925 42.5 30 42.5C23.1075 42.5 17.5 36.8925 17.5 30C17.5 23.1075 23.1075 17.5 30 17.5ZM30 21.25C28.8509 21.25 27.7131 21.4763 26.6515 21.9161C25.5899 22.3558 24.6253 23.0003 23.8128 23.8128C23.0003 24.6253 22.3558 25.5899 21.9161 26.6515C21.4763 27.7131 21.25 28.8509 21.25 30C21.25 31.1491 21.4763 32.2869 21.9161 33.3485C22.3558 34.4101 23.0003 35.3747 23.8128 36.1872C24.6253 36.9997 25.5899 37.6442 26.6515 38.0839C27.7131 38.5237 28.8509 38.75 30 38.75C31.1491 38.75 32.2869 38.5237 33.3485 38.0839C34.4101 37.6442 35.3747 36.9997 36.1872 36.1872C36.9997 35.3747 37.6442 34.4101 38.0839 33.3485C38.5237 32.2869 38.75 31.1491 38.75 30C38.75 28.8509 38.5237 27.7131 38.0839 26.6515C37.6442 25.5899 36.9997 24.6253 36.1872 23.8128C35.3747 23.0003 34.4101 22.3558 33.3485 21.9161C32.2869 21.4763 31.1491 21.25 30 21.25Z" fill="#121212"/>
</svg>
