<svg width="60" height="60" viewBox="0 0 60 60" fill="none" xmlns="http://www.w3.org/2000/svg">
<path d="M48 8H12C9.79 8 8 9.79 8 12V48C8 50.21 9.79 52 12 52H48C50.21 52 52 50.21 52 48V12C52 9.79 50.21 8 48 8ZM21.908 44H16.008V25.016H21.908V44ZM18.898 22.302C16.996 22.302 15.458 20.76 15.458 18.862C15.458 16.964 16.998 15.424 18.898 15.424C20.794 15.424 22.336 16.966 22.336 18.862C22.336 20.76 20.794 22.302 18.898 22.302ZM44.008 44H38.112V34.768C38.112 32.566 38.072 29.734 35.046 29.734C31.976 29.734 31.504 32.132 31.504 34.608V44H25.608V25.016H31.268V27.61H31.348C32.136 26.118 34.06 24.544 36.93 24.544C42.904 24.544 44.008 28.476 44.008 33.588V44Z" fill="#121212"/>
</svg>
