<svg width="60" height="60" viewBox="0 0 60 60" fill="none" xmlns="http://www.w3.org/2000/svg">
<path d="M18 14.3999C13.8626 14.3999 9.8947 16.0435 6.96913 18.969C4.04356 21.8946 2.39999 25.8625 2.39999 29.9999C2.39999 34.1373 4.04356 38.1052 6.96913 41.0308C9.8947 43.9563 13.8626 45.5999 18 45.5999C22.1374 45.5999 26.1053 43.9563 29.0309 41.0308C31.9564 38.1052 33.6 34.1373 33.6 29.9999C33.6 25.8625 31.9564 21.8946 29.0309 18.969C26.1053 16.0435 22.1374 14.3999 18 14.3999ZM42.6 15.5999C38.292 15.5999 34.8 22.0475 34.8 29.9999C34.8 31.4915 34.9224 32.9291 35.1504 34.2815C35.454 36.0851 35.9448 37.7363 36.5808 39.1595C36.8988 39.8711 37.2528 40.5251 37.638 41.1119C38.4084 42.2855 39.3036 43.1915 40.2804 43.7531C41.0136 44.1731 41.7924 44.3999 42.6 44.3999C43.4076 44.3999 44.1864 44.1731 44.9196 43.7531C45.8964 43.1915 46.7916 42.2855 47.562 41.1119C47.9472 40.5251 48.3012 39.8711 48.6192 39.1595C49.2552 37.7375 49.746 36.0851 50.0496 34.2815C50.2776 32.9291 50.4 31.4915 50.4 29.9999C50.4 22.0475 46.908 15.5999 42.6 15.5999ZM54.6 16.7999C54.2892 16.7999 53.9892 17.0075 53.7084 17.3939C53.52 17.6507 53.34 17.9867 53.1708 18.3935C53.0856 18.5963 53.0028 18.8171 52.9236 19.0547C52.764 19.5287 52.6152 20.0699 52.4796 20.6663C52.2084 21.8603 51.9888 23.2835 51.8364 24.8627C51.7608 25.6523 51.702 26.4815 51.6612 27.3407C51.6204 28.1987 51.6 29.0891 51.6 29.9999C51.6 30.9107 51.6204 31.8011 51.6612 32.6603C51.7008 33.5195 51.7596 34.3487 51.8364 35.1383C51.9888 36.7175 52.2084 38.1395 52.4796 39.3347C52.6152 39.9323 52.764 40.4723 52.9236 40.9463C53.0028 41.1839 53.0856 41.4047 53.1708 41.6075C53.3412 42.0143 53.5212 42.3503 53.7084 42.6071C53.9892 42.9923 54.2892 43.1999 54.6 43.1999C56.2572 43.1999 57.6 37.2899 57.6 29.9999C57.6 22.7099 56.2572 16.7999 54.6 16.7999Z" fill="#121212"/>
</svg>
